<svg width="49" height="49" viewBox="0 0 49 49" fill="none" xmlns="http://www.w3.org/2000/svg">
<g clip-path="url(#clip0_75_1397)">
<g filter="url(#filter0_bii_75_1397)">
<rect x="0.907471" y="0.611084" width="47.7776" height="47.7776" rx="10.8586" fill="white" fill-opacity="0.01"/>
</g>
<path d="M32.5901 18.2146C31.3367 17.6303 29.9797 17.2062 28.5661 16.9612C28.5537 16.9608 28.5414 16.9632 28.53 16.968C28.5186 16.9729 28.5084 16.9802 28.5001 16.9895C28.3305 17.3005 28.1326 17.7057 28.0007 18.0167C26.5013 17.7905 24.9766 17.7905 23.4773 18.0167C23.3453 17.6963 23.1474 17.3005 22.9684 16.9895C22.9589 16.9706 22.9307 16.9612 22.9024 16.9612C21.4888 17.2062 20.1412 17.6303 18.8784 18.2146C18.869 18.2146 18.8596 18.224 18.8502 18.2334C16.2869 22.0689 15.5801 25.8007 15.9288 29.4949C15.9288 29.5137 15.9382 29.5326 15.9571 29.542C17.6533 30.7859 19.2837 31.5398 20.8951 32.0393C20.9234 32.0487 20.9517 32.0393 20.9611 32.0205C21.338 31.5021 21.6773 30.9556 21.9694 30.3807C21.9883 30.343 21.9694 30.3053 21.9317 30.2959C21.3946 30.0886 20.8857 29.8436 20.3862 29.5608C20.3485 29.542 20.3485 29.4855 20.3768 29.4572C20.4805 29.3818 20.5841 29.297 20.6878 29.2216C20.7067 29.2027 20.7349 29.2027 20.7538 29.2122C23.9956 30.6917 27.4918 30.6917 30.6959 29.2122C30.7147 29.2027 30.743 29.2027 30.7618 29.2216C30.8655 29.3064 30.9692 29.3818 31.0728 29.4666C31.1105 29.4949 31.1105 29.5514 31.0634 29.5703C30.5734 29.8624 30.0551 30.098 29.5179 30.3053C29.4802 30.3147 29.4708 30.3619 29.4802 30.3901C29.7818 30.965 30.121 31.5116 30.4886 32.0299C30.5168 32.0393 30.5451 32.0487 30.5734 32.0393C32.1943 31.5398 33.8246 30.7859 35.5209 29.542C35.5397 29.5326 35.5491 29.5137 35.5491 29.4949C35.9638 25.2259 34.8612 21.5223 32.6278 18.2334C32.6183 18.224 32.6089 18.2146 32.5901 18.2146ZM22.4595 27.2426C21.4888 27.2426 20.6784 26.3473 20.6784 25.2447C20.6784 24.1422 21.47 23.2469 22.4595 23.2469C23.4584 23.2469 24.25 24.1516 24.2406 25.2447C24.2406 26.3473 23.449 27.2426 22.4595 27.2426ZM29.0279 27.2426C28.0572 27.2426 27.2468 26.3473 27.2468 25.2447C27.2468 24.1422 28.0384 23.2469 29.0279 23.2469C30.0268 23.2469 30.8184 24.1516 30.809 25.2447C30.809 26.3473 30.0268 27.2426 29.0279 27.2426Z" fill="white"/>
<g filter="url(#filter1_f_75_1397)">
<path d="M35.4377 18.3299C34.6789 18.6451 33.8639 18.8582 33.0071 18.9545C33.8912 18.4584 34.5526 17.6775 34.8679 16.7577C34.0373 17.2204 33.1282 17.5461 32.1802 17.7206C31.5427 17.0822 30.6983 16.6591 29.7781 16.5169C28.8579 16.3748 27.9134 16.5215 27.0912 16.9343C26.2691 17.3471 25.6152 18.0029 25.2312 18.8C24.8472 19.597 24.7545 20.4906 24.9676 21.3421C23.2845 21.2629 21.638 20.8526 20.135 20.138C18.6319 19.4234 17.3059 18.4203 16.2429 17.194C15.8795 17.7819 15.6705 18.4636 15.6705 19.1897C15.6701 19.8432 15.8417 20.4868 16.1701 21.0632C16.4986 21.6397 16.9736 22.1312 17.5532 22.4942C16.881 22.4741 16.2237 22.3038 15.636 21.9974V22.0485C15.6359 22.9652 15.974 23.8537 16.5929 24.5632C17.2118 25.2726 18.0734 25.7595 19.0315 25.941C18.408 26.0993 17.7543 26.1226 17.1198 26.0092C17.3901 26.798 17.9166 27.4877 18.6257 27.9818C19.3347 28.476 20.1908 28.7498 21.0741 28.765C19.5747 29.8688 17.723 30.4676 15.8168 30.465C15.4791 30.4651 15.1417 30.4466 14.8064 30.4096C16.7413 31.5763 18.9937 32.1955 21.294 32.1931C29.0809 32.1931 33.3378 26.1447 33.3378 20.899C33.3378 20.7286 33.3333 20.5565 33.3251 20.386C34.1531 19.8245 34.8679 19.1291 35.4358 18.3324L35.4377 18.3299Z" fill="white"/>
</g>
<g filter="url(#filter2_f_75_1397)">
<path d="M39.9983 48.3881H9.3772C11.2587 46.7955 16.969 43.6104 24.7583 43.6104C32.5477 43.6104 38.1639 46.7955 39.9983 48.3881Z" fill="url(#paint0_linear_75_1397)"/>
</g>
</g>
<defs>
<filter id="filter0_bii_75_1397" x="-5.60766" y="-5.90405" width="60.8079" height="60.8079" filterUnits="userSpaceOnUse" color-interpolation-filters="sRGB">
<feFlood flood-opacity="0" result="BackgroundImageFix"/>
<feGaussianBlur in="BackgroundImageFix" stdDeviation="3.25757"/>
<feComposite in2="SourceAlpha" operator="in" result="effect1_backgroundBlur_75_1397"/>
<feBlend mode="normal" in="SourceGraphic" in2="effect1_backgroundBlur_75_1397" result="shape"/>
<feColorMatrix in="SourceAlpha" type="matrix" values="0 0 0 0 0 0 0 0 0 0 0 0 0 0 0 0 0 0 127 0" result="hardAlpha"/>
<feOffset dx="2.17171" dy="2.17171"/>
<feGaussianBlur stdDeviation="0.542928"/>
<feComposite in2="hardAlpha" operator="arithmetic" k2="-1" k3="1"/>
<feColorMatrix type="matrix" values="0 0 0 0 1 0 0 0 0 1 0 0 0 0 1 0 0 0 0.1 0"/>
<feBlend mode="normal" in2="shape" result="effect2_innerShadow_75_1397"/>
<feColorMatrix in="SourceAlpha" type="matrix" values="0 0 0 0 0 0 0 0 0 0 0 0 0 0 0 0 0 0 127 0" result="hardAlpha"/>
<feOffset dy="-1.08586"/>
<feGaussianBlur stdDeviation="2.71464"/>
<feComposite in2="hardAlpha" operator="arithmetic" k2="-1" k3="1"/>
<feColorMatrix type="matrix" values="0 0 0 0 0.113725 0 0 0 0 0.631373 0 0 0 0 0.94902 0 0 0 0.35 0"/>
<feBlend mode="normal" in2="effect2_innerShadow_75_1397" result="effect3_innerShadow_75_1397"/>
</filter>
<filter id="filter1_f_75_1397" x="3.94784" y="5.60556" width="42.3483" height="37.4461" filterUnits="userSpaceOnUse" color-interpolation-filters="sRGB">
<feFlood flood-opacity="0" result="BackgroundImageFix"/>
<feBlend mode="normal" in="SourceGraphic" in2="BackgroundImageFix" result="shape"/>
<feGaussianBlur stdDeviation="5.42928" result="effect1_foregroundBlur_75_1397"/>
</filter>
<filter id="filter2_f_75_1397" x="-1.48136" y="32.7518" width="52.3382" height="26.4949" filterUnits="userSpaceOnUse" color-interpolation-filters="sRGB">
<feFlood flood-opacity="0" result="BackgroundImageFix"/>
<feBlend mode="normal" in="SourceGraphic" in2="BackgroundImageFix" result="shape"/>
<feGaussianBlur stdDeviation="5.42928" result="effect1_foregroundBlur_75_1397"/>
</filter>
<linearGradient id="paint0_linear_75_1397" x1="37.7578" y1="43.3077" x2="35.7859" y2="52.8915" gradientUnits="userSpaceOnUse">
<stop stop-color="#59A6FF"/>
<stop offset="0.0001" stop-color="#0176FF"/>
<stop offset="1" stop-color="#0176FF"/>
</linearGradient>
<clipPath id="clip0_75_1397">
<rect width="47.7776" height="47.7776" fill="white" transform="translate(0.907471 0.611084)"/>
</clipPath>
</defs>
</svg>
