<svg width="49" height="49" viewBox="0 0 49 49" fill="none" xmlns="http://www.w3.org/2000/svg">
<g clip-path="url(#clip0_75_1411)">
<g filter="url(#filter0_bii_75_1411)">
<rect x="0.722412" y="0.611084" width="47.7776" height="47.7776" rx="10.8586" fill="white" fill-opacity="0.01"/>
</g>
<g clip-path="url(#clip1_75_1411)">
<path d="M23.6321 29.7463C23.7269 29.7465 23.8207 29.7646 23.9082 29.7996C23.9957 29.8347 24.0752 29.8859 24.1421 29.9506C24.209 30.0152 24.262 30.0919 24.2982 30.1762C24.3343 30.2606 24.3528 30.3509 24.3527 30.4422C24.3526 30.5334 24.3338 30.6238 24.2974 30.708C24.261 30.7923 24.2077 30.8688 24.1406 30.9332C24.0735 30.9977 23.9939 31.0487 23.9063 31.0835C23.8187 31.1183 23.7248 31.1362 23.6301 31.1361C23.4387 31.1358 23.2553 31.0623 23.1202 30.9318C22.985 30.8013 22.9093 30.6245 22.9095 30.4402C22.9098 30.2559 22.9861 30.0793 23.1216 29.9492C23.2571 29.819 23.4408 29.7461 23.6321 29.7463ZM34.9475 25.4497C34.8527 25.4496 34.7589 25.4316 34.6714 25.3966C34.5839 25.3617 34.5044 25.3104 34.4374 25.2458C34.3705 25.1813 34.3174 25.1046 34.2812 25.0203C34.245 24.936 34.2264 24.8456 34.2264 24.7544C34.2265 24.6631 34.2452 24.5728 34.2816 24.4885C34.3179 24.4042 34.3711 24.3277 34.4381 24.2632C34.5052 24.1987 34.5848 24.1476 34.6723 24.1127C34.7599 24.0778 34.8538 24.0599 34.9485 24.06C35.1399 24.0601 35.3234 24.1335 35.4586 24.2639C35.5938 24.3943 35.6697 24.5711 35.6696 24.7554C35.6695 24.9396 35.5933 25.1163 35.4579 25.2465C35.3225 25.3768 35.1389 25.4498 34.9475 25.4497ZM34.9475 22.607C34.3558 22.6076 33.7886 22.8341 33.3702 23.237C32.9519 23.6399 32.7166 24.1861 32.716 24.7558C32.716 24.9861 32.7561 25.2155 32.8341 25.4388L25.4633 29.2175C25.2589 28.9318 24.9854 28.6982 24.6664 28.5368C24.3474 28.3755 23.9925 28.2912 23.6321 28.2914C22.7812 28.2914 22.0063 28.7609 21.6306 29.4933L15.0091 26.1307C14.3091 25.7769 13.7856 24.6679 13.841 23.6577C13.8698 23.1309 14.0586 22.7217 14.3471 22.5635C14.5298 22.4647 14.7494 22.4726 14.9834 22.5902L15.0266 22.613C16.7817 23.5025 22.5236 26.4154 22.7658 26.5231C23.1384 26.6902 23.3458 26.7574 23.9822 26.4668L35.8518 20.5225C36.0263 20.4592 36.2295 20.2981 36.2295 20.054C36.2295 19.7159 35.8661 19.5825 35.8651 19.5825C35.1897 19.2711 34.152 18.8036 33.14 18.347C30.9762 17.3714 28.5241 16.2664 27.4474 15.7227C26.5174 15.2542 25.7692 15.6496 25.6357 15.7287L25.3771 15.8522C20.5303 18.1602 14.0432 21.2539 13.6737 21.4704C13.0137 21.8578 12.6042 22.6298 12.5508 23.5875C12.4687 25.1067 13.2724 26.6912 14.423 27.2714L21.4253 30.7486C21.5025 31.2594 21.7679 31.7264 22.173 32.0643C22.5782 32.4022 23.0961 32.5885 23.6321 32.589C24.2175 32.5881 24.7792 32.3659 25.1963 31.9704C25.6134 31.5748 25.8526 31.0375 25.8626 30.4738L33.5752 26.448C33.9652 26.7426 34.4507 26.9037 34.9475 26.9037C35.5392 26.9031 36.1064 26.6766 36.5248 26.2737C36.9431 25.8709 37.1784 25.3246 37.179 24.7549C37.1784 24.1851 36.9431 23.6389 36.5248 23.236C36.1064 22.8331 35.5392 22.6066 34.9475 22.606" fill="white"/>
</g>
<g filter="url(#filter1_f_75_1411)">
<path d="M35.2526 18.3299C34.4939 18.6451 33.6789 18.8582 32.822 18.9545C33.7061 18.4584 34.3675 17.6775 34.6829 16.7577C33.8523 17.2204 32.9432 17.5461 31.9952 17.7206C31.3577 17.0822 30.5133 16.6591 29.5931 16.5169C28.6729 16.3748 27.7284 16.5215 26.9062 16.9343C26.084 17.3471 25.4301 18.0029 25.0461 18.8C24.6621 19.597 24.5695 20.4906 24.7825 21.3421C23.0994 21.2629 21.453 20.8526 19.9499 20.138C18.4469 19.4234 17.1208 18.4203 16.0579 17.194C15.6944 17.7819 15.4854 18.4636 15.4854 19.1897C15.485 19.8432 15.6567 20.4868 15.9851 21.0632C16.3135 21.6397 16.7886 22.1312 17.3681 22.4942C16.696 22.4741 16.0387 22.3038 15.4509 21.9974V22.0485C15.4508 22.9652 15.789 23.8537 16.4079 24.5632C17.0268 25.2726 17.8884 25.7595 18.8464 25.941C18.2229 26.0993 17.5692 26.1226 16.9347 26.0092C17.205 26.798 17.7316 27.4877 18.4406 27.9818C19.1497 28.476 20.0058 28.7498 20.889 28.765C19.3897 29.8688 17.5379 30.4676 15.6317 30.465C15.2941 30.4651 14.9567 30.4466 14.6213 30.4096C16.5562 31.5763 18.8086 32.1955 21.1089 32.1931C28.8958 32.1931 33.1528 26.1447 33.1528 20.899C33.1528 20.7286 33.1482 20.5565 33.14 20.386C33.9681 19.8245 34.6828 19.1291 35.2508 18.3324L35.2526 18.3299Z" fill="white"/>
</g>
<g filter="url(#filter2_f_75_1411)">
<path d="M39.8131 48.3881H9.19202C11.0735 46.7955 16.7838 43.6104 24.5731 43.6104C32.3625 43.6104 37.9787 46.7955 39.8131 48.3881Z" fill="url(#paint0_linear_75_1411)"/>
</g>
</g>
<defs>
<filter id="filter0_bii_75_1411" x="-5.79272" y="-5.90405" width="60.8079" height="60.8079" filterUnits="userSpaceOnUse" color-interpolation-filters="sRGB">
<feFlood flood-opacity="0" result="BackgroundImageFix"/>
<feGaussianBlur in="BackgroundImageFix" stdDeviation="3.25757"/>
<feComposite in2="SourceAlpha" operator="in" result="effect1_backgroundBlur_75_1411"/>
<feBlend mode="normal" in="SourceGraphic" in2="effect1_backgroundBlur_75_1411" result="shape"/>
<feColorMatrix in="SourceAlpha" type="matrix" values="0 0 0 0 0 0 0 0 0 0 0 0 0 0 0 0 0 0 127 0" result="hardAlpha"/>
<feOffset dx="2.17171" dy="2.17171"/>
<feGaussianBlur stdDeviation="0.542928"/>
<feComposite in2="hardAlpha" operator="arithmetic" k2="-1" k3="1"/>
<feColorMatrix type="matrix" values="0 0 0 0 1 0 0 0 0 1 0 0 0 0 1 0 0 0 0.1 0"/>
<feBlend mode="normal" in2="shape" result="effect2_innerShadow_75_1411"/>
<feColorMatrix in="SourceAlpha" type="matrix" values="0 0 0 0 0 0 0 0 0 0 0 0 0 0 0 0 0 0 127 0" result="hardAlpha"/>
<feOffset dy="-1.08586"/>
<feGaussianBlur stdDeviation="2.71464"/>
<feComposite in2="hardAlpha" operator="arithmetic" k2="-1" k3="1"/>
<feColorMatrix type="matrix" values="0 0 0 0 0.113725 0 0 0 0 0.631373 0 0 0 0 0.94902 0 0 0 0.35 0"/>
<feBlend mode="normal" in2="effect2_innerShadow_75_1411" result="effect3_innerShadow_75_1411"/>
</filter>
<filter id="filter1_f_75_1411" x="3.76278" y="5.60556" width="42.3483" height="37.4461" filterUnits="userSpaceOnUse" color-interpolation-filters="sRGB">
<feFlood flood-opacity="0" result="BackgroundImageFix"/>
<feBlend mode="normal" in="SourceGraphic" in2="BackgroundImageFix" result="shape"/>
<feGaussianBlur stdDeviation="5.42928" result="effect1_foregroundBlur_75_1411"/>
</filter>
<filter id="filter2_f_75_1411" x="-1.66654" y="32.7518" width="52.3382" height="26.4949" filterUnits="userSpaceOnUse" color-interpolation-filters="sRGB">
<feFlood flood-opacity="0" result="BackgroundImageFix"/>
<feBlend mode="normal" in="SourceGraphic" in2="BackgroundImageFix" result="shape"/>
<feGaussianBlur stdDeviation="5.42928" result="effect1_foregroundBlur_75_1411"/>
</filter>
<linearGradient id="paint0_linear_75_1411" x1="37.5726" y1="43.3077" x2="35.6007" y2="52.8915" gradientUnits="userSpaceOnUse">
<stop stop-color="#59A6FF"/>
<stop offset="0.0001" stop-color="#0176FF"/>
<stop offset="1" stop-color="#0176FF"/>
</linearGradient>
<clipPath id="clip0_75_1411">
<rect width="47.7776" height="47.7776" fill="white" transform="translate(0.722412 0.611084)"/>
</clipPath>
<clipPath id="clip1_75_1411">
<rect width="24.6343" height="23.7219" fill="white" transform="translate(12.5444 12.1826)"/>
</clipPath>
</defs>
</svg>
